<svg xmlns="http://www.w3.org/2000/svg" width="19.6" height="20" viewBox="0 0 19.6 20">
  <g id="Icn-Google" transform="translate(-2613.573)">
    <path id="Path_46" data-name="Path 46" d="M3868.879,1082.032a8.563,8.563,0,0,0-.211-2.044h-9.389v3.711h5.511a4.888,4.888,0,0,1-2.044,3.245l-.019.124,2.969,2.3.206.021a9.777,9.777,0,0,0,2.978-7.356" transform="translate(-1235.706 -1071.81)" fill="#4285f4"/>
    <path id="Path_47" data-name="Path 47" d="M2755.378,1561.379a9.532,9.532,0,0,0,6.622-2.422l-3.156-2.445a5.919,5.919,0,0,1-3.467,1,6.02,6.02,0,0,1-5.689-4.156l-.117.01-3.087,2.389-.041.112a9.993,9.993,0,0,0,8.933,5.511" transform="translate(-131.805 -1541.379)" fill="#34a853"/>
    <path id="Path_48" data-name="Path 48" d="M2617.884,748.25a6.155,6.155,0,0,1-.333-1.978,6.47,6.47,0,0,1,.322-1.978l-.006-.133-3.125-2.427-.1.049a9.979,9.979,0,0,0,0,8.978l3.245-2.511" transform="translate(0 -736.273)" fill="#fbbc05"/>
    <path id="Path_49" data-name="Path 49" d="M2755.378,65.144a5.542,5.542,0,0,1,3.867,1.489l2.822-2.756a9.608,9.608,0,0,0-6.689-2.6,9.993,9.993,0,0,0-8.933,5.511l3.233,2.511a6.045,6.045,0,0,1,5.7-4.156" transform="translate(-131.805 -61.277)" fill="#eb4335"/>
  </g>
</svg>
