<svg width="26" height="26" viewBox="0 0 26 26" fill="none" xmlns="http://www.w3.org/2000/svg">
<path d="M10.125 25.5L9.5 21.5625C9.10417 21.4167 8.6875 21.2188 8.25 20.9688C7.8125 20.7188 7.42708 20.4583 7.09375 20.1875L3.40625 21.875L0.5 16.75L3.875 14.2812C3.83333 14.0937 3.80729 13.8802 3.79687 13.6406C3.78646 13.401 3.78125 13.1875 3.78125 13C3.78125 12.8125 3.78646 12.599 3.79687 12.3594C3.80729 12.1198 3.83333 11.9063 3.875 11.7188L0.5 9.25L3.40625 4.125L7.09375 5.8125C7.42708 5.54167 7.8125 5.28125 8.25 5.03125C8.6875 4.78125 9.10417 4.59375 9.5 4.46875L10.125 0.5H15.875L16.5 4.4375C16.8958 4.58333 17.3177 4.77604 17.7656 5.01562C18.2135 5.25521 18.5938 5.52083 18.9062 5.8125L22.5938 4.125L25.5 9.25L22.125 11.6562C22.1667 11.8646 22.1927 12.0885 22.2031 12.3281C22.2135 12.5677 22.2188 12.7917 22.2188 13C22.2188 13.2083 22.2135 13.4271 22.2031 13.6562C22.1927 13.8854 22.1667 14.1042 22.125 14.3125L25.5 16.75L22.5938 21.875L18.9062 20.1875C18.5729 20.4583 18.1927 20.724 17.7656 20.9844C17.3385 21.2448 16.9167 21.4375 16.5 21.5625L15.875 25.5H10.125ZM13 17.0625C14.125 17.0625 15.0833 16.6667 15.875 15.875C16.6667 15.0833 17.0625 14.125 17.0625 13C17.0625 11.875 16.6667 10.9167 15.875 10.125C15.0833 9.33333 14.125 8.9375 13 8.9375C11.875 8.9375 10.9167 9.33333 10.125 10.125C9.33333 10.9167 8.9375 11.875 8.9375 13C8.9375 14.125 9.33333 15.0833 10.125 15.875C10.9167 16.6667 11.875 17.0625 13 17.0625Z" fill="#979797"/>
</svg>
