<svg xmlns="http://www.w3.org/2000/svg" width="20" height="20" viewBox="0 0 20 20">
  <g id="Icn-Facebook" transform="translate(-415)">
    <path id="Path_54" data-name="Path 54" d="M435,179a10,10,0,1,0-11.562,9.878v-6.988H420.9V179h2.539v-2.2a3.529,3.529,0,0,1,3.777-3.891,15.378,15.378,0,0,1,2.238.2v2.461h-1.261a1.445,1.445,0,0,0-1.63,1.562V179h2.773l-.443,2.891h-2.33v6.988A10,10,0,0,0,435,179Z" transform="translate(0 -169)" fill="#1877f2"/>
    <path id="Path_55" data-name="Path 55" d="M724.994,377.984l.443-2.891h-2.773v-1.876a1.445,1.445,0,0,1,1.63-1.562h1.261V369.2a15.377,15.377,0,0,0-2.239-.2,3.529,3.529,0,0,0-3.777,3.891v2.2H717v2.891h2.539v6.988a10.106,10.106,0,0,0,3.125,0v-6.988Z" transform="translate(-296.102 -365.094)" fill="#fff"/>
  </g>
</svg>
