<?xml version="1.0" encoding="UTF-8" standalone="no"?>
<!-- Created with Inkscape (http://www.inkscape.org/) -->

<svg
  version="1.1"
  id="svg2"
  xml:space="preserve"
  width="228.05333"
  height="65.879997"
  viewBox="0 0 228.05333 65.879997"
  sodipodi:docname="logo.ai"
  xmlns:inkscape="http://www.inkscape.org/namespaces/inkscape"
  xmlns:sodipodi="http://sodipodi.sourceforge.net/DTD/sodipodi-0.dtd"
  xmlns="http://www.w3.org/2000/svg"
  xmlns:svg="http://www.w3.org/2000/svg"><defs
     id="defs6"><clipPath
       clipPathUnits="userSpaceOnUse"
       id="clipPath16"><path
         d="M 0,49.41 H 171.04 V 0 H 0 Z"
         id="path14" /></clipPath></defs>
  <sodipodi:namedview
    id="namedview4"
    pagecolor="#ffffff"
    bordercolor="#666666"
    borderopacity="1.0"
    inkscape:pageshadow="2"
    inkscape:pageopacity="0.0"
    inkscape:pagecheckerboard="0"/>
  <g
    id="g8"
    inkscape:groupmode="layer"
    inkscape:label="logo"
    transform="matrix(1.3333333,0,0,-1.3333333,0,65.88)"><g
       id="g10"><g
         id="g12"
         clip-path="url(#clipPath16)"><g
           id="g18"
           transform="translate(23.15,1.99)"><path fill="#fff"
             d="m 0,0 c 0,-0.34 -0.27,-0.69 -0.55,-0.82 -1.99,-0.69 -4.24,-1.17 -6.44,-1.17 -5.96,0 -11.64,3.02 -11.64,11.05 l 0.07,17.71 h -3.97 c -0.34,0 -0.62,0.27 -0.62,0.62 v 6.04 c 0,0.34 0.27,0.62 0.62,0.62 h 3.97 l -0.07,8.24 c 0,0.34 0.27,0.62 0.62,0.62 h 9.1 c 0.34,0 0.62,-0.27 0.62,-0.62 l -0.07,-8.24 h 7.81 c 0.34,0 0.62,-0.27 0.62,-0.62 v -6.04 c 0,-0.34 -0.27,-0.62 -0.62,-0.62 H -8.42 L -8.35,9.34 c 0,-3.02 1.51,-3.98 3.77,-3.98 1.64,0 2.94,0.27 3.97,0.62 C -0.27,6.05 0.01,5.77 0.01,5.5 V 0.01 Z"
             style="fill-opacity:1;fill-rule:nonzero;stroke:none"
             id="path20" /></g><g
    id="g22"
    transform="translate(45.06,29.31)"><path
             d="M 0,0 C -3.29,0 -6.85,-2.54 -8.01,-7.55 L -7.74,-28 c 0,-0.34 -0.27,-0.62 -0.62,-0.62 h -8.97 c -0.34,0 -0.62,0.27 -0.62,0.62 l 0.27,23.47 -0.27,23.33 c 0,0.34 0.27,0.62 0.62,0.62 h 8.97 c 0.34,0 0.62,-0.27 0.62,-0.62 L -7.95,2.81 c 2.47,3.16 6.03,4.74 10.68,4.74 7.94,0 12.81,-4.74 12.6,-15.1 V -15.1 L 15.54,-28 c 0,-0.34 -0.27,-0.62 -0.62,-0.62 H 5.68 c -0.34,0 -0.62,0.27 -0.62,0.62 L 5.27,-15.24 5.2,-6.32 C 5.13,-2.07 2.8,-0.01 0,-0.01 Z"
             style="fill:#fff;fill-opacity:1;fill-rule:nonzero;stroke:none"
             id="path24" /></g><g
    id="g26"
    transform="translate(65.73,0.69)"><path
             d="m 0,0 c -0.34,0 -0.62,0.27 -0.62,0.62 l 0.27,17.09 -0.27,17.02 c 0,0.34 0.27,0.62 0.62,0.62 h 9.04 c 0.34,0 0.62,-0.27 0.62,-0.62 L 9.39,29.38 c 2.74,4.19 7.46,6.24 12.6,6.24 0.55,0 1.09,-0.07 1.58,-0.14 0.34,-0.07 0.62,-0.41 0.62,-0.76 v -6.38 c 0,-0.34 -0.27,-0.55 -0.62,-0.55 -0.41,0.07 -0.89,0.07 -1.3,0.07 -7.26,0 -12.67,-4.05 -12.6,-12.15 V 0.61 C 9.67,0.27 9.4,-0.01 9.05,-0.01 H 0.01 Z"
             style="fill:#fff;fill-opacity:1;fill-rule:nonzero;stroke:none"
             id="path28" /></g><g
    id="g30"
    transform="translate(136.53,16.26)"><path
             d="m 0,0 0.34,-14.96 c 0,-0.34 -0.27,-0.62 -0.62,-0.62 h -9.45 c -0.34,0 -0.62,0.27 -0.62,0.62 L -10.08,0 v 12.49 h -4.73 c -0.34,0 -0.62,0.27 -0.62,0.62 v 6.04 c 0,0.34 0.27,0.62 0.62,0.62 h 4.73 v 2.33 c 0,8.03 5.61,11.05 11.51,11.05 2.12,0 4.65,-0.34 6.37,-0.62 0.34,0 0.62,-0.34 0.62,-0.69 V 25.88 C 8.42,25.61 8.15,25.33 7.8,25.4 6.77,25.67 5.47,25.81 3.83,25.81 1.57,25.81 0,24.71 0,21.14 v -1.37 h 7.81 c 0.34,0 0.62,-0.27 0.62,-0.62 v -6.04 c 0,-0.34 -0.27,-0.62 -0.62,-0.62 H 0 Z"
             style="fill:#fff;fill-opacity:1;fill-rule:nonzero;stroke:none"
             id="path32" /></g><g
    id="g34"
    transform="translate(170.97,1.99)"><path
             d="m 0,0 c 0,-0.34 -0.27,-0.69 -0.55,-0.82 -1.99,-0.69 -4.24,-1.17 -6.44,-1.17 -5.96,0 -11.64,3.02 -11.64,11.05 l 0.07,17.71 h -3.97 c -0.34,0 -0.62,0.27 -0.62,0.62 v 6.04 c 0,0.34 0.27,0.62 0.62,0.62 h 3.97 l -0.07,8.24 c 0,0.34 0.27,0.62 0.62,0.62 h 9.11 c 0.34,0 0.62,-0.27 0.62,-0.62 l -0.07,-8.24 h 7.81 c 0.34,0 0.62,-0.27 0.62,-0.62 v -6.04 c 0,-0.34 -0.27,-0.62 -0.62,-0.62 H -8.42 L -8.35,9.34 c 0,-3.02 1.51,-3.98 3.77,-3.98 1.64,0 2.94,0.27 3.97,0.62 C -0.27,6.05 0.01,5.77 0.01,5.5 V 0.01 Z"
             style="fill:#fff;fill-opacity:1;fill-rule:nonzero;stroke:none"
             id="path36" /></g><g
    id="g38"
    transform="translate(112.23,48.72)"><path
             d="m 0,0 h -11.6 l -7.02,-6.25 -0.1,-8.52 8.55,8.04 H 0 V -41.3 h -8.14 v 29.92 l -10.48,-9.83 h 4.78 V -48.04 H 5.72 L 5.72,0 H 0.01 Z"
             style="fill:#fff;fill-opacity:1;fill-rule:nonzero;stroke:none"
             id="path40" /></g></g></g></g></svg>
