<svg xmlns="http://www.w3.org/2000/svg" xmlns:xlink="http://www.w3.org/1999/xlink" width="98.466" height="104.152" viewBox="0 0 98.466 104.152">
  <defs>
    <style>
      .cls-1, .cls-3 {
        fill: #fff;
      }

      .cls-2 {
        clip-path: url(#clip-path);
      }

      .cls-3 {
        fill-rule: evenodd;
      }

      .cls-4 {
        clip-path: url(#clip-path-2);
      }

      .cls-5 {
        clip-path: url(#clip-path-3);
      }
    </style>
    <clipPath id="clip-path">
      <rect id="Rectangle_19" data-name="Rectangle 19" class="cls-1" width="47" height="47"/>
    </clipPath>
    <clipPath id="clip-path-2">
      <rect id="Rectangle_20" data-name="Rectangle 20" class="cls-1" width="39.365" height="39.507"/>
    </clipPath>
    <clipPath id="clip-path-3">
      <rect id="Rectangle_21" data-name="Rectangle 21" class="cls-1" width="47" height="37.398"/>
    </clipPath>
  </defs>
  <g id="Group_139" data-name="Group 139" transform="translate(-138.267 -253)">
    <g id="Group_113" data-name="Group 113" transform="translate(157.949 253)">
      <g id="Group_112" data-name="Group 112" class="cls-2">
        <path id="Path_389" data-name="Path 389" class="cls-3" d="M13.048,6.926c-.634,0-7.448,7.138-7.448,7.138l.556,2.46.811-.272A4.531,4.531,0,0,1,13,20.837l-.723,13.507h19.17L30.74,20.837a4.523,4.523,0,0,1,6.039-4.577l.819.284.554-2.493s-6.764-7.193-7.461-7.124c0,0-.447-.01-.918-.01a8.817,8.817,0,0,1-15.8,0c-.474,0-.92.01-.92.01M9.106,20.621a.622.622,0,0,0-.879-.664L5.14,20.989A1.731,1.731,0,0,1,2.857,19.7L1.748,14.7a3.973,3.973,0,0,1,.958-3.3L9.733,4.383A5.408,5.408,0,0,1,13.066,3h2.955a1.38,1.38,0,0,1,1.24.944S17.936,7.9,21.886,7.9s4.63-3.964,4.63-3.964A1.36,1.36,0,0,1,27.751,3h2.955a5.419,5.419,0,0,1,3.333,1.383l7.027,7.027a3.962,3.962,0,0,1,.958,3.3l-1.108,5.013a1.718,1.718,0,0,1-2.283,1.287l-3.1-1.054a.614.614,0,0,0-.868.662l.824,15.673a1.838,1.838,0,0,1-1.847,1.956H10.128a1.832,1.832,0,0,1-1.847-1.956Zm14.738,3.921a1.958,1.958,0,0,1,0,3.917H19.926a1.958,1.958,0,0,1,0-3.917l0-1.958a1.958,1.958,0,0,1,0-3.917,1.959,1.959,0,1,1,3.919.01Z" transform="translate(1.614 2.875)"/>
      </g>
    </g>
    <g id="Group_115" data-name="Group 115" transform="translate(138.267 317.645)">
      <g id="Group_114" data-name="Group 114" class="cls-4" transform="translate(0 0)">
        <path id="Path_390" data-name="Path 390" class="cls-3" d="M9.457,32.171A8.244,8.244,0,0,1,.148,25.647a7.9,7.9,0,0,1,6.236-9.283l10.434-2.028L23.605,1.485A1.975,1.975,0,0,1,25.515,0H37.392a1.975,1.975,0,0,1,1.971,1.983V24.671a4.159,4.159,0,0,1-1.276,2.723L27.412,37.333a8.239,8.239,0,0,1-11.364-.2,7.9,7.9,0,0,1-2.33-5.63Zm10.41-15.177a2.408,2.408,0,0,1-1.449,1.054L7.137,20.24a3.949,3.949,0,0,0-3.112,4.652,4.293,4.293,0,0,0,4.818,3.377s5.555-.968,6.206-1.133c.28-.419,8.493-8.7,8.493-8.7V10.308ZM35.439,7.9V3.949l-7.948.01V7.9ZM30.487,24.683a5.924,5.924,0,0,1,4.947-5.843c0-2.148,0-4.656,0-6.994H27.491v8.221l-8.673,8.673a3.951,3.951,0,0,0,.022,5.6,4.292,4.292,0,0,0,5.881.107l6.789-6.431a5.9,5.9,0,0,1-1.023-3.329" transform="translate(0 0.001)"/>
      </g>
    </g>
    <g id="Group_117" data-name="Group 117" transform="translate(189.733 288)">
      <g id="Group_116" data-name="Group 116" class="cls-5">
        <path id="Path_391" data-name="Path 391" class="cls-3" d="M5.875,33.474H9.79c-.376-2.481-1.459-3.848-3.037-4.508a4.221,4.221,0,0,0-.877-.227ZM8.26,25.353c3.01,1.255,4.98,3.95,5.474,8.121H41.125V31.508a3.032,3.032,0,0,0-1.432-2.146L33.5,26.144l-.354.967a1.958,1.958,0,1,1-3.68-1.339L30,24.322l-2.334-1.214-.39,1.067a1.958,1.958,0,0,1-3.68-1.34l.564-1.549-2.922-1.52-1.984,0c-.331,1.688-2.71,3.917-6.521,3.917-3.067,0-5.634-1.441-6.521-3.909-.227-.01.21-.008-.333-.01V24.7a9.655,9.655,0,0,1,2.385.652M24.753,13.5c-.043-.108-.793-2.117-.891-2.554A5.871,5.871,0,0,1,24.83,6.11c1.573-2.3,3.218-2.724,6.37-2.573.159.01.227.012.311.018,2.1.09,2.695-.2,3.537-2.319a1.958,1.958,0,1,1,3.639,1.445c-1.539,3.874-3.729,4.941-7.344,4.784-.094,0-.168-.006-.333-.014-1.917-.092-2.368.023-2.947.871a1.982,1.982,0,0,0-.378,1.77,11.139,11.139,0,0,0,.7,1.949,10.8,10.8,0,0,1,.709,7.4l2.246,1.169.131-.356a1.958,1.958,0,1,1,3.682,1.336l-.307.846L41.3,25.791a6.887,6.887,0,0,1,3.74,5.716v1.966a1.958,1.958,0,1,1,0,3.917H2.156l-.2.008a1.962,1.962,0,0,1,0-3.924V19.763a3.921,3.921,0,0,1,3.925-3.915H7.446c.736,0,2.346.386,2.346,1.952,0,1.085.944,1.964,2.938,1.964s2.938-.879,2.938-1.964a2.155,2.155,0,0,1,2.391-1.952h3.151a4.755,4.755,0,0,1,1.849.452l2.432,1.265a7.725,7.725,0,0,0-.736-4.066" transform="translate(0 0)"/>
      </g>
    </g>
  </g>
</svg>
