<svg width="120" height="121" viewBox="0 0 120 121" fill="none" xmlns="http://www.w3.org/2000/svg">
<path d="M63.1342 0.96875H69.6709C70.5394 1.75939 71.5386 2.4473 72.2234 3.37179C72.6498 3.95076 72.9549 4.19667 73.6521 4.19355C79.06 4.17073 84.4648 4.17073 89.8664 4.19355C91.1976 4.18549 92.4964 4.60436 93.572 5.38869C94.6476 6.17301 95.4435 7.28148 95.8429 8.5514C96.1376 9.59509 96.2781 10.6763 96.26 11.7606C96.2807 30.0366 96.2859 48.3105 96.2756 66.5823V68.4686C98.2304 67.5348 99.9611 66.6788 101.707 65.8664C102.007 65.7474 102.271 65.5511 102.47 65.2974C102.67 65.0437 102.799 64.7417 102.843 64.4221C103.762 60.0642 108.092 57.1662 112.365 57.9475C116.891 58.7724 119.985 62.8968 119.188 67.3761C118.896 69.032 117.996 70.5791 117.396 72.1136L119.63 75.8956V79.3975C119.39 79.9241 119.004 80.3707 118.517 80.6842C118.03 80.9976 117.464 81.1647 116.885 81.1655V82.4915C116.885 85.9156 116.885 89.3396 116.885 92.7636C116.885 94.1674 116.185 95.011 115.07 95.0017C113.956 94.9923 113.284 94.1581 113.277 92.7418C113.271 91.3255 113.277 89.8874 113.277 88.4275H108.786V110.304H113.271C113.271 107.412 113.271 104.617 113.271 101.822C113.271 100.387 113.912 99.5618 115.027 99.5276C116.141 99.4934 116.876 100.359 116.879 101.84C116.879 104.446 116.863 107.051 116.904 109.653C116.944 110.078 117.111 110.48 117.383 110.808C118.096 111.726 118.874 112.598 119.627 113.488V120.492H103.752C102.507 119.829 102.162 118.687 102.264 117.379H17.4079C17.6134 118.792 17.162 119.832 15.9761 120.492H0.101074V113.488C0.723623 112.676 1.21855 111.714 1.99051 111.098C2.61306 110.603 2.86519 110.198 2.86208 109.423C2.83718 100.409 2.83718 91.394 2.86208 82.3795V81.1717C2.2832 81.1709 1.71673 81.0038 1.23004 80.6904C0.743344 80.377 0.356895 79.9304 0.116638 79.4037V75.9081L2.52902 71.8273C2.49166 71.7837 2.28622 71.516 2.08078 71.239C0.896639 69.7195 0.298886 67.8245 0.396785 65.9006C0.624015 61.6424 3.93598 58.1779 7.9483 57.8946C12.3809 57.5834 15.9979 60.2946 16.9753 64.6493C17.0375 64.9357 17.1309 65.3434 17.3363 65.4493C19.2849 66.4609 21.2615 67.4196 23.4747 68.5122V66.5885C23.4747 48.1611 23.4747 29.7336 23.4747 11.3062C23.4747 6.8425 26.1516 4.18422 30.578 4.1811C35.7513 4.1811 40.9216 4.1811 46.0919 4.16243C46.4872 4.16243 47.1253 4.00368 47.2343 3.74221C47.8008 2.39127 48.8093 1.56328 50.0731 0.96875H56.3639C57.1888 1.54772 57.7398 2.25743 57.3507 3.32821C56.9616 4.39899 56.0776 4.57331 55.0753 4.53284C53.9484 4.50483 52.8154 4.47993 51.6948 4.55775C51.3835 4.58265 50.8264 4.9624 50.8201 5.18029C50.7548 7.4526 50.7797 9.73113 50.7797 12.0283H68.9706C68.9706 9.72801 69.0048 7.51485 68.9301 5.30792C68.9301 5.04022 68.3698 4.59198 68.0461 4.56708C66.801 4.47993 65.5559 4.50794 64.3108 4.53596C63.3396 4.55774 62.5209 4.33674 62.1568 3.32821C61.7583 2.25431 62.3062 1.54772 63.1342 0.96875ZM72.7837 12.1186C76.3976 12.1186 79.8963 12.2338 83.367 12.0844C86.4797 11.9505 88.3474 14.0049 88.3474 17.0336C88.2851 25.7493 88.3256 34.465 88.3256 43.1807C88.3256 45.0483 87.6813 46.0008 86.4331 45.9822C85.1848 45.9635 84.6028 45.0483 84.5996 43.1278C84.5996 34.493 84.5996 25.8551 84.6183 17.2204C84.6183 16.1589 84.3849 15.7107 83.1989 15.7138C67.6352 15.7512 52.0715 15.7512 36.5077 15.7138C35.4619 15.7138 35.079 15.9846 35.079 17.0865C35.108 35.2131 35.108 53.3407 35.079 71.4693C35.079 72.3004 35.3093 72.6739 36.1622 72.9043C41.827 74.4411 47.629 75.418 53.4847 75.8209C63.5583 76.5261 73.6791 75.5563 83.4355 72.951C84.3693 72.6988 84.637 72.2942 84.6308 71.3604C84.5934 65.331 84.6121 59.2985 84.6152 53.2691C84.6152 51.4637 85.2378 50.5517 86.4362 50.5236C87.6346 50.4956 88.3349 51.4357 88.3381 53.3251C88.3381 58.8513 88.3381 64.3754 88.3381 69.8974V71.4755C89.5053 71.074 90.4703 70.6849 91.4508 70.4172C92.3193 70.1837 92.5558 69.7106 92.5527 68.8328C92.5278 49.6542 92.5205 30.4755 92.5309 11.2968C92.5309 8.84399 91.5068 7.82924 89.0571 7.82613C84.0373 7.82613 79.0185 7.82613 74.0008 7.82613C73.621 7.82613 73.2412 7.86037 72.7774 7.88216L72.7837 12.1186ZM105.097 101.255H14.6314C14.6314 103.929 14.6625 106.528 14.6314 109.124C14.6158 110.036 14.7154 110.712 15.6586 111.185C16.2378 111.509 16.6899 112.021 16.941 112.635C17.2928 113.526 17.8219 113.691 18.6966 113.691C46.1593 113.668 73.621 113.662 101.082 113.672C101.237 113.672 101.421 113.725 101.545 113.672C101.92 113.506 102.268 113.286 102.579 113.018C103.279 112.324 103.933 111.577 104.596 110.839C104.786 110.631 105.088 110.391 105.088 110.164C105.106 107.21 105.097 104.265 105.097 101.255ZM35.1973 97.4919H84.5094V83.7678C84.3288 83.7366 84.2479 83.6962 84.1794 83.7148C77.5493 85.3023 70.8382 86.3545 64.0182 86.5319C60.4447 86.6222 56.8589 86.507 53.2917 86.4292C53.0476 86.4296 52.8059 86.3814 52.5806 86.2874C52.3554 86.1933 52.1512 86.0553 51.9799 85.8814C51.8086 85.7075 51.6737 85.5012 51.5831 85.2746C51.4924 85.048 51.4479 84.8056 51.452 84.5615C51.4863 83.5623 52.28 82.8588 53.4099 82.8308C53.6434 82.8308 53.8769 82.8308 54.1103 82.8526C60.1428 83.0643 66.1566 82.9834 72.1642 82.2301C83.2872 80.8195 94.0909 77.5348 104.117 72.5152C104.369 72.3717 104.613 72.2148 104.848 72.0452C104.226 71.1113 103.678 70.2398 103.136 69.4087C74.2311 83.2147 45.3863 83.2147 16.6017 69.4087L14.8337 72.179C16.8912 73.1315 18.846 74.084 20.8351 74.9525C28.5864 78.2866 36.7271 80.6303 45.0647 81.9281C46.4747 82.1554 47.1097 82.974 46.895 84.1071C46.6958 85.1716 45.8055 85.707 44.4733 85.5109C43.3994 85.3553 42.3286 85.1592 41.2609 84.9475C39.2656 84.5522 37.2735 84.1351 35.2066 83.7024L35.1973 97.4919ZM46.9448 7.795H31.1445C28.0317 7.795 27.182 8.63544 27.182 11.7171V68.4219C27.1569 68.7717 27.1663 69.123 27.21 69.4709C27.2283 69.5959 27.2724 69.7158 27.3394 69.8229C27.4063 69.9301 27.4947 70.0222 27.5991 70.0935C28.7788 70.5635 29.9803 70.9744 31.3935 71.4849V17.7433C31.3935 17.2795 31.3935 16.8095 31.3935 16.3457C31.5398 13.7435 33.2362 12.1279 35.8478 12.1217C39.1131 12.1217 42.3846 12.1217 45.6468 12.1217H46.9323L46.9448 7.795ZM23.456 97.5043V95.8888C23.456 91.1823 23.3969 86.4727 23.4934 81.7694C23.5183 80.3935 23.1821 79.6558 21.8125 79.2449C20.3588 78.8061 18.9799 78.1181 17.5262 77.5236C17.2523 80.2722 17.0188 80.571 14.703 81.2838V97.5043H23.456ZM102.187 77.5205C100.506 78.2115 98.9463 78.9025 97.3495 79.4877C96.5277 79.799 96.2475 80.2255 96.2569 81.1095C96.2973 86.1646 96.2756 91.2197 96.2818 96.2779C96.2818 96.6857 96.344 97.0934 96.3752 97.4887H105.041V81.2589C102.781 80.6519 102.542 80.3437 102.187 77.5205V77.5205ZM10.9428 110.404V88.4369H6.53512V110.404H10.9428ZM4.07605 66.2025C4.08599 67.1265 4.36982 68.0267 4.89162 68.7892C5.41342 69.5517 6.14973 70.1423 7.00733 70.4861C7.86493 70.8299 8.80527 70.9116 9.70931 70.7208C10.6134 70.5299 11.4404 70.0751 12.0859 69.414C12.7313 68.7528 13.1661 67.9151 13.3352 67.0067C13.5043 66.0983 13.4 65.1602 13.0357 64.3111C12.6713 63.462 12.0632 62.7401 11.2884 62.2368C10.5135 61.7335 9.6068 61.4714 8.68291 61.4836C7.44639 61.5057 6.26863 62.0153 5.40588 62.9013C4.54312 63.7874 4.06518 64.9783 4.07605 66.215V66.2025ZM115.656 66.2025C115.644 65.2838 115.363 64.3888 114.845 63.6295C114.328 62.8703 113.598 62.2805 112.747 61.9342C111.896 61.5878 110.961 61.5003 110.061 61.6825C109.16 61.8647 108.334 62.3085 107.684 62.9584C107.035 63.6083 106.591 64.4354 106.41 65.3361C106.228 66.2367 106.316 67.171 106.663 68.0218C107.01 68.8725 107.6 69.6021 108.36 70.119C109.12 70.6359 110.015 70.9172 110.933 70.9277C111.555 70.9356 112.172 70.8193 112.748 70.5857C113.324 70.352 113.847 70.0057 114.288 69.567C114.728 69.1284 115.077 68.6062 115.313 68.0311C115.548 67.4561 115.667 66.8397 115.662 66.2181L115.656 66.2025ZM31.2098 97.5417C31.2759 97.4061 31.3251 97.2628 31.3561 97.1152C31.3561 92.4928 31.3842 87.8704 31.3561 83.2479C31.3496 83.1044 31.3093 82.9645 31.2384 82.8396C31.1675 82.7146 31.0682 82.6082 30.9484 82.5289C29.7593 82.1056 28.5453 81.7569 27.2971 81.3709V97.5417H31.2098ZM88.4221 97.5012H92.4313V81.3554C91.3387 81.6885 90.3894 82.0277 89.412 82.255C88.5933 82.4511 88.3132 82.8588 88.3194 83.7117C88.363 87.9077 88.3381 92.1161 88.3412 96.3059C88.3443 96.6763 88.391 97.053 88.4221 97.4887V97.5012ZM13.8127 116.875C13.8127 116.162 13.9092 115.493 13.7754 114.873C13.7038 114.547 13.2369 114.064 12.9411 114.058C10.1521 113.996 7.36103 113.996 4.56786 114.058C4.37071 114.109 4.18902 114.207 4.0387 114.344C3.88838 114.482 3.77402 114.654 3.70563 114.845C3.57178 115.496 3.66517 116.193 3.66517 116.878L13.8127 116.875ZM116.073 116.875V115.711C116.073 114.008 116.073 114.008 114.426 114.005C112.409 114.005 110.379 113.983 108.378 114.005C105.922 114.039 105.797 113.398 105.956 116.629C105.956 116.694 106.028 116.754 106.099 116.869L116.073 116.875ZM13.6944 77.4178C13.6073 75.768 12.7077 74.7097 11.142 74.6163C9.55392 74.5182 7.96132 74.5182 6.37326 74.6163C4.74218 74.7128 3.74299 75.905 3.84571 77.4178H13.6944ZM106.025 77.4178H115.973C115.839 75.656 114.862 74.6568 113.172 74.5883C111.74 74.5354 110.298 74.5354 108.863 74.5883C107.136 74.6474 106.159 75.6497 106.012 77.4084L106.025 77.4178ZM6.54446 81.1624V84.6207H10.9334V81.1624H6.54446ZM108.758 84.6331H113.203V81.1904H108.758V84.6331Z" fill="white"/>
<path d="M59.8504 34.1195C57.4785 34.1195 55.1065 34.1195 52.7346 34.1195C50.9977 34.1195 50.4499 33.6744 50.1417 31.9406C49.6717 29.3041 49.2079 26.6489 48.8344 24.0124C48.5542 22.0732 49.7962 21.1549 51.6172 21.8833C52.772 22.3471 53.8895 22.9012 55.0599 23.309C55.257 23.351 55.4613 23.3465 55.6563 23.2957C55.8514 23.2449 56.032 23.1492 56.1836 23.0164C56.9337 22.1759 57.55 21.2234 58.2598 20.3487C59.2714 19.1036 60.4387 19.1036 61.4721 20.3487C62.1818 21.2234 62.8012 22.1759 63.5514 23.0132C63.7037 23.1459 63.885 23.241 64.0807 23.2907C64.2764 23.3405 64.4811 23.3435 64.6782 23.2996C65.8486 22.8887 66.9661 22.3316 68.1209 21.8709C69.9388 21.1425 71.1808 22.0701 70.8944 24.0124C70.496 26.7392 70.001 29.4504 69.5123 32.1647C69.2602 33.5841 68.6719 34.0728 67.2027 34.0884C64.7529 34.1382 62.3032 34.1195 59.8504 34.1195ZM52.9463 26.4715C53.1206 27.5859 53.2949 28.4232 53.3727 29.273C53.4506 30.1228 53.8521 30.4371 54.7299 30.4216C57.4069 30.3718 60.0869 30.4029 62.7639 30.4029C66.2439 30.4029 66.2439 30.4029 66.6922 26.9789C66.6873 26.8303 66.6643 26.683 66.6237 26.54C65.8673 26.8513 65.1514 27.1221 64.4448 27.4302C63.3304 27.9127 62.4215 27.7197 61.6931 26.705C61.1328 25.9299 60.5289 25.1859 59.8597 24.3175L58.1415 26.5369C57.1547 27.81 56.5353 27.9687 55.0287 27.3337L52.9463 26.4715Z" fill="white"/>
<path d="M65.9044 47.4856C65.9044 45.702 65.9044 43.9153 65.9044 42.1286C65.9044 40.4477 66.5611 39.7536 68.2078 39.7505C69.5238 39.6981 70.842 39.7553 72.1485 39.9217C74.6823 40.3326 76.3787 42.58 76.2947 45.1853C76.2484 46.3976 75.7734 47.5541 74.9543 48.449C74.1352 49.3439 73.0252 49.9192 71.8217 50.0723C69.5992 50.3618 69.5992 50.3618 69.5712 52.6746C69.5712 52.7929 69.5712 52.908 69.5712 53.0263C69.5276 54.5173 68.8397 55.3827 67.7035 55.3578C66.5674 55.3329 65.9012 54.4395 65.895 52.961C65.895 51.1338 65.9044 49.3097 65.9044 47.4856ZM70.642 43.4609C69.7081 43.2181 69.5214 43.878 69.6085 44.7371C69.6832 45.4779 69.1852 46.5736 70.7042 46.4802C71.912 46.4086 72.6528 45.8981 72.6559 44.9581C72.659 44.018 71.9618 43.4795 70.642 43.4609Z" fill="white"/>
<path d="M49.6714 47.9898C50.3406 45.9728 51.0036 43.9433 51.6822 41.9449C51.8047 41.4961 51.9803 41.0635 52.2051 40.6562C52.3968 40.311 52.7046 40.0449 53.0739 39.9053C53.4432 39.7656 53.8501 39.7615 54.2222 39.8936C54.6075 39.9788 54.9488 40.2009 55.1829 40.5185C55.417 40.8362 55.528 41.2279 55.4953 41.6212C55.4773 41.9684 55.4092 42.3113 55.293 42.639C54.107 46.2498 52.9024 49.8575 51.7196 53.4714C51.3772 54.5204 50.7857 55.3173 49.6153 55.339C48.445 55.3608 47.8131 54.6262 47.4364 53.5617C46.1913 49.9291 44.9151 46.3059 43.7011 42.6671C43.5237 42.141 43.3587 41.422 43.5891 40.9986C43.9383 40.4218 44.4953 40.0008 45.1454 39.822C46.0295 39.6352 46.7018 40.2391 47.0131 41.0889C47.6823 42.9565 48.3173 44.8242 48.9679 46.6918C49.1204 47.1245 49.2792 47.5572 49.441 47.9898H49.6714Z" fill="white"/>
<path d="M59.8035 62.1903C56.3795 62.1903 52.9555 62.1903 49.5315 62.1903C48.1027 62.1903 47.2685 61.5428 47.2311 60.4409C47.1938 59.339 48.0622 58.5732 49.5377 58.5732C56.4231 58.5732 63.3074 58.5732 70.1907 58.5732C71.6226 58.5732 72.4568 59.2207 72.4942 60.3226C72.5315 61.4245 71.66 62.1903 70.1845 62.1903C66.7252 62.1944 63.2649 62.1944 59.8035 62.1903Z" fill="white"/>
<path d="M62.5303 47.5416C62.5303 49.4497 62.549 51.3547 62.5303 53.2597C62.5303 54.5546 61.7552 55.3889 60.6907 55.3577C59.6261 55.3266 58.9133 54.5048 58.9071 53.294C58.8884 49.4819 58.8884 45.6698 58.9071 41.8577C58.9071 40.5846 59.7039 39.7442 60.7747 39.7691C61.8455 39.794 62.5147 40.5784 62.5303 41.8266C62.549 43.7316 62.5303 45.6366 62.5303 47.5416Z" fill="white"/>
</svg>
