<svg xmlns="http://www.w3.org/2000/svg" xmlns:xlink="http://www.w3.org/1999/xlink" width="119.448" height="126.75" viewBox="0 0 119.448 126.75">
  <defs>
    <style>
      .cls-1, .cls-3 {
        fill: #fff;
      }

      .cls-2 {
        clip-path: url(#clip-path);
      }

      .cls-3 {
        fill-rule: evenodd;
      }

      .cls-4 {
        clip-path: url(#clip-path-2);
      }

      .cls-5 {
        clip-path: url(#clip-path-3);
      }

      .cls-6 {
        clip-path: url(#clip-path-5);
      }
    </style>
    <clipPath id="clip-path">
      <rect id="Rectangle_22" data-name="Rectangle 22" class="cls-1" width="35.466" height="38.5"/>
    </clipPath>
    <clipPath id="clip-path-2">
      <rect id="Rectangle_23" data-name="Rectangle 23" class="cls-1" width="36" height="36" transform="translate(-0.294 -0.489)"/>
    </clipPath>
    <clipPath id="clip-path-3">
      <rect id="Rectangle_24" data-name="Rectangle 24" class="cls-1" width="35.466" height="35.541"/>
    </clipPath>
    <clipPath id="clip-path-5">
      <rect id="Rectangle_26" data-name="Rectangle 26" class="cls-1" width="30" height="34.062"/>
    </clipPath>
  </defs>
  <g id="Group_140" data-name="Group 140" transform="translate(-125.285 -248.25)">
    <g id="Group_119" data-name="Group 119" transform="translate(160.751 248.25)">
      <g id="Group_118" data-name="Group 118" class="cls-2" transform="translate(0 0)">
        <path id="Path_392" data-name="Path 392" class="cls-3" d="M14.8,20.715a.981.981,0,0,0,.977.986h3.965a.986.986,0,0,0,0-1.973H15.772a.987.987,0,0,0-.977.986M6.91,26.635,4.72,34.525H30.744l-2.219-7.891H24.66A2.96,2.96,0,0,1,21.7,29.593c-.041,0-.083,0-.124,0a3.947,3.947,0,0,1-7.645,0c-.039,0-.081,0-.122,0a2.96,2.96,0,0,1-2.959-2.957Zm19.667-3.948h2.989a2.735,2.735,0,0,1,2.492,1.9l3.336,11.977a1.423,1.423,0,0,1-1.452,1.9L1.524,38.5A1.425,1.425,0,0,1,.07,36.592l3.312-12a2.74,2.74,0,0,1,2.49-1.908h3.06a11.806,11.806,0,0,1-2.659-5,2.96,2.96,0,0,1-.633-5.567,3.945,3.945,0,0,1,3.237-6.2,5.286,5.286,0,0,0,0-.986,2.959,2.959,0,0,1,5.08-2.064,3.947,3.947,0,0,1,7.594,0,2.961,2.961,0,0,1,5.082,2.064,5.286,5.286,0,0,0,0,.986,3.945,3.945,0,0,1,3.237,6.2,2.96,2.96,0,0,1-.633,5.567,11.827,11.827,0,0,1-2.659,5M23.251,11.9a3.944,3.944,0,0,1-5.5-.41,3.944,3.944,0,0,1-5.5.41,3.967,3.967,0,0,1-2.314,1.766A7.928,7.928,0,0,0,9.864,14.8a7.849,7.849,0,0,0,1.31,4.354A3.942,3.942,0,0,1,14.8,16.769a3.7,3.7,0,0,1,2.959,1,3.7,3.7,0,0,1,2.959-1,3.942,3.942,0,0,1,3.622,2.381,7.849,7.849,0,0,0,1.31-4.354,8,8,0,0,0-.1-1.278Z" transform="translate(0.001 0.001)"/>
      </g>
    </g>
    <g id="Group_121" data-name="Group 121" transform="translate(196.294 339.489)">
      <g id="Group_120" data-name="Group 120" class="cls-4">
        <path id="Path_393" data-name="Path 393" class="cls-3" d="M28.563,23.655,6.919,23.66,4.725,31.54l26.059,0ZM10.92,7.891H24.592a7.894,7.894,0,0,0-13.672,0m0,7.891a7.894,7.894,0,0,0,13.672,0ZM6.6,7.891a11.865,11.865,0,0,1,22.36,0h1.624a.987.987,0,0,1,.984.984V14.8a.98.98,0,0,1-.984.984h-1.63a11.817,11.817,0,0,1-2.34,3.93H29.6a2.738,2.738,0,0,1,2.5,1.9l3.34,11.965a1.422,1.422,0,0,1-1.454,1.9l-32.459.028a1.426,1.426,0,0,1-1.458-1.9L3.386,21.619a2.753,2.753,0,0,1,2.5-1.906H8.943a11.845,11.845,0,0,1-2.338-3.93H4.928a.987.987,0,0,1-.982-.984V8.876a.978.978,0,0,1,.982-.984Z" transform="translate(0)"/>
      </g>
    </g>
    <g id="Group_123" data-name="Group 123" transform="translate(209.267 273.75)">
      <g id="Group_122" data-name="Group 122" class="cls-5" transform="translate(0 0)">
        <path id="Path_394" data-name="Path 394" class="cls-3" d="M19.727,21.7a1.973,1.973,0,1,0-1.973,1.973A1.972,1.972,0,0,0,19.727,21.7M5.917,11.837a11.837,11.837,0,1,1,20.66,7.891h2.989a2.737,2.737,0,0,1,2.494,1.9l3.334,11.975a1.423,1.423,0,0,1-1.45,1.906l-32.42.028A1.426,1.426,0,0,1,.069,33.635l3.314-12a2.74,2.74,0,0,1,2.49-1.908h3.06a11.783,11.783,0,0,1-3.016-7.891m.992,11.841-2.19,7.887,26.026,0-2.219-7.893-5.191,0a5.92,5.92,0,0,1-11.16,0ZM22.491,18.15a7.894,7.894,0,0,0-.014-12.636,5.923,5.923,0,0,1-5.709,4.35,1.973,1.973,0,1,1,0-3.946A1.974,1.974,0,0,0,18.74,4.007a8.149,8.149,0,0,0-.986-.061,7.891,7.891,0,0,0-4.735,14.2A5.945,5.945,0,0,1,14.8,16.572a2.959,2.959,0,0,1,5.9,0,5.945,5.945,0,0,1,1.783,1.578" transform="translate(0 0.001)"/>
      </g>
    </g>
    <g id="Group_125" data-name="Group 125" transform="translate(125.285 315.459)">
      <g id="Group_124" data-name="Group 124" class="cls-5" transform="translate(0 0)">
        <path id="Path_395" data-name="Path 395" class="cls-3" d="M28.526,23.674l-21.615,0L4.719,31.566l26.026,0Zm3.533-2.042L35.4,33.608a1.424,1.424,0,0,1-1.452,1.906l-32.418.028A1.428,1.428,0,0,1,.069,33.633l3.314-12a2.742,2.742,0,0,1,2.49-1.908l.01-7.891a11.837,11.837,0,0,1,23.674,0v7.891a2.737,2.737,0,0,1,2.5,1.9M24.146,9.864c-3.05,0-5.6-2.861-6.252-5.917-.057,0-.28,0-.333,0C16.91,7,14.359,9.864,11.309,9.864c-.418,0-.833,0-1.233.006a7.892,7.892,0,1,0,15.288,0c-.395-.006-.8-.006-1.217-.006" transform="translate(0 0.001)"/>
      </g>
    </g>
    <g id="Group_127" data-name="Group 127" transform="translate(172.5 304.52)">
      <g id="Group_126" data-name="Group 126" class="cls-6" transform="translate(0 0)">
        <path id="Path_396" data-name="Path 396" class="cls-3" d="M15,16.667A1.667,1.667,0,1,0,13.333,15,1.667,1.667,0,0,0,15,16.667m-2,11.5,2.005-1.1,1.662.912c.4.218.662.038.575-.41l-.363-1.893,1.425-1.617c.308-.35.18-.657-.277-.7l-1.928-.17-.9-1.918c-.2-.422-.53-.427-.743-.015l-1.005,1.928-1.79.173c-.463.043-.587.363-.292.712l1.35,1.6L12.4,27.743c-.072.457.2.642.6.422M16.667,10V3.333H13.333V10Zm6.667-6.668H20V10h3.333ZM10,13.333H5.005a1.668,1.668,0,0,1-1.672-1.662V3.333H1.667A1.667,1.667,0,0,1,1.667,0H28.333a1.667,1.667,0,1,1,0,3.333H26.667v8.338a1.661,1.661,0,0,1-1.672,1.662H20V15a5,5,0,0,1-2.135,4.1l.443.942,5.848.493c.922.077,1.173.693.558,1.383l-4.253,4.75,1.228,6.37c.175.9-.342,1.28-1.152.84l-5.533-3.018L9.472,33.877c-.81.442-1.358.062-1.225-.848l.94-6.362L5.258,21.96c-.593-.71-.335-1.352.585-1.433l5.5-.487.577-1.1A4.992,4.992,0,0,1,10,15Zm0-10H6.668l0,6.667H10Z" transform="translate(0 0)"/>
      </g>
    </g>
  </g>
</svg>
